<mxfile host="app.diagrams.net" modified="2023-11-28T15:34:08.917Z" agent="Mozilla/5.0 (Windows NT 10.0; Win64; x64) AppleWebKit/537.36 (KHTML, like Gecko) Chrome/119.0.0.0 Safari/537.36" etag="HRK3bMs33CL23S5Zfsge" version="22.1.4" type="device">
  <diagram name="Page-1" id="87SbWK4rxJpsjSUS-L1c">
    <mxGraphModel dx="1506" dy="1168" grid="1" gridSize="10" guides="1" tooltips="1" connect="1" arrows="1" fold="1" page="0" pageScale="1" pageWidth="850" pageHeight="1100" math="0" shadow="0">
      <root>
        <mxCell id="0" />
        <mxCell id="1" parent="0" />
        <mxCell id="E6-NcNVp-BEpCwzYryR7-1" value="&lt;font style=&quot;font-size: 20px;&quot;&gt;Customer&lt;/font&gt;" style="rounded=0;whiteSpace=wrap;html=1;fontSize=16;" vertex="1" parent="1">
          <mxGeometry x="-140" y="-40" width="130" height="40" as="geometry" />
        </mxCell>
        <mxCell id="E6-NcNVp-BEpCwzYryR7-2" value="&lt;font style=&quot;font-size: 20px;&quot;&gt;Admin&lt;/font&gt;" style="rounded=0;whiteSpace=wrap;html=1;fontSize=16;" vertex="1" parent="1">
          <mxGeometry x="400" y="-40" width="130" height="40" as="geometry" />
        </mxCell>
        <mxCell id="E6-NcNVp-BEpCwzYryR7-3" value="&lt;font style=&quot;font-size: 20px;&quot;&gt;&lt;span style=&quot;&quot;&gt;1.&lt;br&gt;&lt;/span&gt;&lt;font style=&quot;font-size: 20px;&quot;&gt;Register&lt;br&gt;&lt;/font&gt;&lt;/font&gt;" style="ellipse;whiteSpace=wrap;html=1;fontSize=16;" vertex="1" parent="1">
          <mxGeometry x="110" y="40" width="120" height="80" as="geometry" />
        </mxCell>
        <mxCell id="E6-NcNVp-BEpCwzYryR7-8" value="" style="group" vertex="1" connectable="0" parent="1">
          <mxGeometry x="-70" y="170" width="180" height="40" as="geometry" />
        </mxCell>
        <mxCell id="E6-NcNVp-BEpCwzYryR7-4" value="" style="endArrow=none;html=1;rounded=0;fontSize=12;startSize=8;endSize=8;curved=1;" edge="1" parent="E6-NcNVp-BEpCwzYryR7-8">
          <mxGeometry width="50" height="50" relative="1" as="geometry">
            <mxPoint x="10" as="sourcePoint" />
            <mxPoint x="170" as="targetPoint" />
          </mxGeometry>
        </mxCell>
        <mxCell id="E6-NcNVp-BEpCwzYryR7-5" value="" style="endArrow=none;html=1;rounded=0;fontSize=12;startSize=8;endSize=8;curved=1;" edge="1" parent="E6-NcNVp-BEpCwzYryR7-8">
          <mxGeometry width="50" height="50" relative="1" as="geometry">
            <mxPoint x="10" y="40" as="sourcePoint" />
            <mxPoint x="170" y="40" as="targetPoint" />
          </mxGeometry>
        </mxCell>
        <mxCell id="E6-NcNVp-BEpCwzYryR7-6" value="&lt;font style=&quot;font-size: 20px;&quot;&gt;Customer&lt;/font&gt;" style="text;html=1;align=center;verticalAlign=middle;resizable=0;points=[];autosize=1;strokeColor=none;fillColor=none;fontSize=16;" vertex="1" parent="E6-NcNVp-BEpCwzYryR7-8">
          <mxGeometry x="35" width="110" height="40" as="geometry" />
        </mxCell>
        <mxCell id="E6-NcNVp-BEpCwzYryR7-9" value="" style="group" vertex="1" connectable="0" parent="1">
          <mxGeometry x="230" y="190" width="180" height="40" as="geometry" />
        </mxCell>
        <mxCell id="E6-NcNVp-BEpCwzYryR7-10" value="" style="endArrow=none;html=1;rounded=0;fontSize=12;startSize=8;endSize=8;curved=1;" edge="1" parent="E6-NcNVp-BEpCwzYryR7-9">
          <mxGeometry width="50" height="50" relative="1" as="geometry">
            <mxPoint x="10" as="sourcePoint" />
            <mxPoint x="170" as="targetPoint" />
          </mxGeometry>
        </mxCell>
        <mxCell id="E6-NcNVp-BEpCwzYryR7-11" value="" style="endArrow=none;html=1;rounded=0;fontSize=12;startSize=8;endSize=8;curved=1;" edge="1" parent="E6-NcNVp-BEpCwzYryR7-9">
          <mxGeometry width="50" height="50" relative="1" as="geometry">
            <mxPoint x="10" y="40" as="sourcePoint" />
            <mxPoint x="170" y="40" as="targetPoint" />
          </mxGeometry>
        </mxCell>
        <mxCell id="E6-NcNVp-BEpCwzYryR7-12" value="&lt;font style=&quot;font-size: 20px;&quot;&gt;Admin&lt;/font&gt;" style="text;html=1;align=center;verticalAlign=middle;resizable=0;points=[];autosize=1;strokeColor=none;fillColor=none;fontSize=16;" vertex="1" parent="E6-NcNVp-BEpCwzYryR7-9">
          <mxGeometry x="50" width="80" height="40" as="geometry" />
        </mxCell>
        <mxCell id="E6-NcNVp-BEpCwzYryR7-13" value="" style="endArrow=classic;html=1;rounded=0;fontSize=12;startSize=8;endSize=8;curved=1;exitX=1;exitY=0.5;exitDx=0;exitDy=0;" edge="1" parent="1" source="E6-NcNVp-BEpCwzYryR7-1" target="E6-NcNVp-BEpCwzYryR7-3">
          <mxGeometry width="50" height="50" relative="1" as="geometry">
            <mxPoint x="20" y="30" as="sourcePoint" />
            <mxPoint x="70" y="-20" as="targetPoint" />
          </mxGeometry>
        </mxCell>
        <mxCell id="E6-NcNVp-BEpCwzYryR7-14" value="&lt;font style=&quot;font-size: 18px;&quot;&gt;Cust_details&lt;/font&gt;" style="text;html=1;align=center;verticalAlign=middle;resizable=0;points=[];autosize=1;strokeColor=none;fillColor=none;fontSize=16;rotation=30;" vertex="1" parent="1">
          <mxGeometry x="10" y="-20" width="120" height="40" as="geometry" />
        </mxCell>
        <mxCell id="E6-NcNVp-BEpCwzYryR7-15" value="" style="endArrow=classic;html=1;rounded=0;fontSize=12;startSize=8;endSize=8;curved=1;exitX=0;exitY=0.5;exitDx=0;exitDy=0;entryX=0.979;entryY=0.26;entryDx=0;entryDy=0;entryPerimeter=0;" edge="1" parent="1" source="E6-NcNVp-BEpCwzYryR7-2" target="E6-NcNVp-BEpCwzYryR7-3">
          <mxGeometry width="50" height="50" relative="1" as="geometry">
            <mxPoint x="260" y="60" as="sourcePoint" />
            <mxPoint x="310" y="10" as="targetPoint" />
          </mxGeometry>
        </mxCell>
        <mxCell id="E6-NcNVp-BEpCwzYryR7-16" value="&lt;font style=&quot;font-size: 18px;&quot;&gt;Admin_details&lt;/font&gt;" style="text;html=1;align=center;verticalAlign=middle;resizable=0;points=[];autosize=1;strokeColor=none;fillColor=none;fontSize=16;rotation=-25;" vertex="1" parent="1">
          <mxGeometry x="230" y="-20" width="140" height="40" as="geometry" />
        </mxCell>
        <mxCell id="E6-NcNVp-BEpCwzYryR7-17" value="" style="endArrow=classic;html=1;rounded=0;fontSize=12;startSize=8;endSize=8;curved=1;exitX=0;exitY=0.5;exitDx=0;exitDy=0;entryX=0.643;entryY=-0.068;entryDx=0;entryDy=0;entryPerimeter=0;" edge="1" parent="1" source="E6-NcNVp-BEpCwzYryR7-3" target="E6-NcNVp-BEpCwzYryR7-6">
          <mxGeometry width="50" height="50" relative="1" as="geometry">
            <mxPoint x="60" y="240" as="sourcePoint" />
            <mxPoint x="110" y="190" as="targetPoint" />
          </mxGeometry>
        </mxCell>
        <mxCell id="E6-NcNVp-BEpCwzYryR7-18" value="&lt;font style=&quot;font-size: 18px;&quot;&gt;Cust_details&lt;/font&gt;" style="text;html=1;align=center;verticalAlign=middle;resizable=0;points=[];autosize=1;strokeColor=none;fillColor=none;fontSize=16;rotation=-50;" vertex="1" parent="1">
          <mxGeometry x="-10" y="90" width="120" height="40" as="geometry" />
        </mxCell>
        <mxCell id="E6-NcNVp-BEpCwzYryR7-19" value="" style="endArrow=classic;html=1;rounded=0;fontSize=12;startSize=8;endSize=8;curved=1;exitX=0.979;exitY=0.665;exitDx=0;exitDy=0;exitPerimeter=0;entryX=0.506;entryY=-0.053;entryDx=0;entryDy=0;entryPerimeter=0;" edge="1" parent="1" source="E6-NcNVp-BEpCwzYryR7-3" target="E6-NcNVp-BEpCwzYryR7-12">
          <mxGeometry width="50" height="50" relative="1" as="geometry">
            <mxPoint x="310" y="160" as="sourcePoint" />
            <mxPoint x="420" y="120" as="targetPoint" />
          </mxGeometry>
        </mxCell>
        <mxCell id="E6-NcNVp-BEpCwzYryR7-20" value="&lt;font style=&quot;font-size: 18px;&quot;&gt;Admin_details&lt;/font&gt;" style="text;html=1;align=center;verticalAlign=middle;resizable=0;points=[];autosize=1;strokeColor=none;fillColor=none;fontSize=16;rotation=30;" vertex="1" parent="1">
          <mxGeometry x="230" y="110" width="140" height="40" as="geometry" />
        </mxCell>
        <mxCell id="E6-NcNVp-BEpCwzYryR7-21" value="&lt;font style=&quot;font-size: 20px;&quot;&gt;2.&lt;br&gt;Products&lt;/font&gt;" style="ellipse;whiteSpace=wrap;html=1;fontSize=16;" vertex="1" parent="1">
          <mxGeometry x="-135" y="290" width="120" height="80" as="geometry" />
        </mxCell>
        <mxCell id="E6-NcNVp-BEpCwzYryR7-22" value="" style="endArrow=classic;html=1;rounded=0;fontSize=12;startSize=8;endSize=8;curved=1;exitX=0.167;exitY=1.035;exitDx=0;exitDy=0;exitPerimeter=0;entryX=0.5;entryY=0;entryDx=0;entryDy=0;" edge="1" parent="1" source="E6-NcNVp-BEpCwzYryR7-1" target="E6-NcNVp-BEpCwzYryR7-21">
          <mxGeometry width="50" height="50" relative="1" as="geometry">
            <mxPoint x="-100" y="250" as="sourcePoint" />
            <mxPoint x="-50" y="200" as="targetPoint" />
          </mxGeometry>
        </mxCell>
        <mxCell id="E6-NcNVp-BEpCwzYryR7-23" value="&lt;font style=&quot;font-size: 18px;&quot;&gt;View&lt;/font&gt;" style="text;html=1;align=center;verticalAlign=middle;resizable=0;points=[];autosize=1;strokeColor=none;fillColor=none;fontSize=16;" vertex="1" parent="1">
          <mxGeometry x="-150" y="140" width="60" height="40" as="geometry" />
        </mxCell>
        <mxCell id="E6-NcNVp-BEpCwzYryR7-27" value="" style="endArrow=classic;html=1;rounded=0;fontSize=12;startSize=8;endSize=8;curved=1;" edge="1" parent="1" target="E6-NcNVp-BEpCwzYryR7-21">
          <mxGeometry width="50" height="50" relative="1" as="geometry">
            <mxPoint x="390" y="300" as="sourcePoint" />
            <mxPoint x="80" y="250" as="targetPoint" />
          </mxGeometry>
        </mxCell>
        <mxCell id="E6-NcNVp-BEpCwzYryR7-28" value="&lt;font style=&quot;font-size: 18px;&quot;&gt;Product_details&lt;/font&gt;" style="text;html=1;align=center;verticalAlign=middle;resizable=0;points=[];autosize=1;strokeColor=none;fillColor=none;fontSize=16;rotation=-5;" vertex="1" parent="1">
          <mxGeometry x="80" y="280" width="150" height="40" as="geometry" />
        </mxCell>
        <mxCell id="E6-NcNVp-BEpCwzYryR7-29" value="&lt;font style=&quot;font-size: 20px;&quot;&gt;3.&lt;br&gt;Order&lt;br&gt;&lt;/font&gt;" style="ellipse;whiteSpace=wrap;html=1;fontSize=16;" vertex="1" parent="1">
          <mxGeometry x="200" y="460" width="120" height="80" as="geometry" />
        </mxCell>
        <mxCell id="E6-NcNVp-BEpCwzYryR7-31" value="" style="group" vertex="1" connectable="0" parent="1">
          <mxGeometry x="370" y="260" width="160" height="40" as="geometry" />
        </mxCell>
        <mxCell id="E6-NcNVp-BEpCwzYryR7-24" value="" style="endArrow=none;html=1;rounded=0;fontSize=12;startSize=8;endSize=8;curved=1;" edge="1" parent="E6-NcNVp-BEpCwzYryR7-31">
          <mxGeometry width="50" height="50" relative="1" as="geometry">
            <mxPoint as="sourcePoint" />
            <mxPoint x="160" as="targetPoint" />
          </mxGeometry>
        </mxCell>
        <mxCell id="E6-NcNVp-BEpCwzYryR7-25" value="" style="endArrow=none;html=1;rounded=0;fontSize=12;startSize=8;endSize=8;curved=1;" edge="1" parent="E6-NcNVp-BEpCwzYryR7-31">
          <mxGeometry width="50" height="50" relative="1" as="geometry">
            <mxPoint y="40" as="sourcePoint" />
            <mxPoint x="160" y="40" as="targetPoint" />
          </mxGeometry>
        </mxCell>
        <mxCell id="E6-NcNVp-BEpCwzYryR7-26" value="&lt;font style=&quot;font-size: 20px;&quot;&gt;Products&lt;/font&gt;" style="text;html=1;align=center;verticalAlign=middle;resizable=0;points=[];autosize=1;strokeColor=none;fillColor=none;fontSize=16;" vertex="1" parent="E6-NcNVp-BEpCwzYryR7-31">
          <mxGeometry x="30" width="100" height="40" as="geometry" />
        </mxCell>
        <mxCell id="E6-NcNVp-BEpCwzYryR7-36" value="" style="endArrow=classic;html=1;rounded=0;fontSize=12;startSize=8;endSize=8;curved=1;exitX=0.167;exitY=1.035;exitDx=0;exitDy=0;exitPerimeter=0;entryX=0.497;entryY=-0.075;entryDx=0;entryDy=0;entryPerimeter=0;" edge="1" parent="1" target="E6-NcNVp-BEpCwzYryR7-26">
          <mxGeometry width="50" height="50" relative="1" as="geometry">
            <mxPoint x="450" y="1" as="sourcePoint" />
            <mxPoint x="490" y="260" as="targetPoint" />
          </mxGeometry>
        </mxCell>
        <mxCell id="E6-NcNVp-BEpCwzYryR7-37" value="&lt;font style=&quot;font-size: 18px;&quot;&gt;Add&lt;/font&gt;" style="text;html=1;align=center;verticalAlign=middle;resizable=0;points=[];autosize=1;strokeColor=none;fillColor=none;fontSize=16;" vertex="1" parent="1">
          <mxGeometry x="450" y="140" width="60" height="40" as="geometry" />
        </mxCell>
        <mxCell id="E6-NcNVp-BEpCwzYryR7-38" value="" style="group" vertex="1" connectable="0" parent="1">
          <mxGeometry x="-120" y="480" width="180" height="40" as="geometry" />
        </mxCell>
        <mxCell id="E6-NcNVp-BEpCwzYryR7-39" value="" style="endArrow=none;html=1;rounded=0;fontSize=12;startSize=8;endSize=8;curved=1;" edge="1" parent="E6-NcNVp-BEpCwzYryR7-38">
          <mxGeometry width="50" height="50" relative="1" as="geometry">
            <mxPoint x="10" as="sourcePoint" />
            <mxPoint x="170" as="targetPoint" />
          </mxGeometry>
        </mxCell>
        <mxCell id="E6-NcNVp-BEpCwzYryR7-40" value="" style="endArrow=none;html=1;rounded=0;fontSize=12;startSize=8;endSize=8;curved=1;" edge="1" parent="E6-NcNVp-BEpCwzYryR7-38">
          <mxGeometry width="50" height="50" relative="1" as="geometry">
            <mxPoint x="10" y="40" as="sourcePoint" />
            <mxPoint x="170" y="40" as="targetPoint" />
          </mxGeometry>
        </mxCell>
        <mxCell id="E6-NcNVp-BEpCwzYryR7-41" value="&lt;font style=&quot;font-size: 20px;&quot;&gt;Cart&lt;/font&gt;" style="text;html=1;align=center;verticalAlign=middle;resizable=0;points=[];autosize=1;strokeColor=none;fillColor=none;fontSize=16;" vertex="1" parent="E6-NcNVp-BEpCwzYryR7-38">
          <mxGeometry x="60" width="60" height="40" as="geometry" />
        </mxCell>
        <mxCell id="E6-NcNVp-BEpCwzYryR7-42" value="" style="endArrow=classic;html=1;rounded=0;fontSize=12;startSize=8;endSize=8;curved=1;exitX=0.4;exitY=1.025;exitDx=0;exitDy=0;exitPerimeter=0;entryX=0.425;entryY=0.071;entryDx=0;entryDy=0;entryPerimeter=0;" edge="1" parent="1" source="E6-NcNVp-BEpCwzYryR7-21" target="E6-NcNVp-BEpCwzYryR7-41">
          <mxGeometry width="50" height="50" relative="1" as="geometry">
            <mxPoint x="-190" y="470" as="sourcePoint" />
            <mxPoint x="-140" y="420" as="targetPoint" />
          </mxGeometry>
        </mxCell>
        <mxCell id="E6-NcNVp-BEpCwzYryR7-43" value="&lt;font style=&quot;font-size: 18px;&quot;&gt;Added&lt;/font&gt;" style="text;html=1;align=center;verticalAlign=middle;resizable=0;points=[];autosize=1;strokeColor=none;fillColor=none;fontSize=16;rotation=60;" vertex="1" parent="1">
          <mxGeometry x="-85" y="405" width="80" height="40" as="geometry" />
        </mxCell>
        <mxCell id="E6-NcNVp-BEpCwzYryR7-44" value="" style="endArrow=classic;html=1;rounded=0;fontSize=12;startSize=8;endSize=8;curved=1;entryX=0;entryY=0.5;entryDx=0;entryDy=0;" edge="1" parent="1" target="E6-NcNVp-BEpCwzYryR7-29">
          <mxGeometry width="50" height="50" relative="1" as="geometry">
            <mxPoint x="40" y="500" as="sourcePoint" />
            <mxPoint x="160" y="480" as="targetPoint" />
          </mxGeometry>
        </mxCell>
        <mxCell id="E6-NcNVp-BEpCwzYryR7-45" value="&lt;font style=&quot;font-size: 18px;&quot;&gt;CartData&lt;/font&gt;" style="text;html=1;align=center;verticalAlign=middle;resizable=0;points=[];autosize=1;strokeColor=none;fillColor=none;fontSize=16;rotation=0;" vertex="1" parent="1">
          <mxGeometry x="65" y="465" width="100" height="40" as="geometry" />
        </mxCell>
        <mxCell id="E6-NcNVp-BEpCwzYryR7-46" value="&lt;font style=&quot;font-size: 20px;&quot;&gt;Order Delivered&lt;/font&gt;" style="rounded=0;whiteSpace=wrap;html=1;fontSize=16;" vertex="1" parent="1">
          <mxGeometry x="220" y="610" width="120" height="60" as="geometry" />
        </mxCell>
        <mxCell id="E6-NcNVp-BEpCwzYryR7-50" value="" style="group" vertex="1" connectable="0" parent="1">
          <mxGeometry x="430" y="480" width="180" height="40" as="geometry" />
        </mxCell>
        <mxCell id="E6-NcNVp-BEpCwzYryR7-51" value="" style="endArrow=none;html=1;rounded=0;fontSize=12;startSize=8;endSize=8;curved=1;" edge="1" parent="E6-NcNVp-BEpCwzYryR7-50">
          <mxGeometry width="50" height="50" relative="1" as="geometry">
            <mxPoint x="10" as="sourcePoint" />
            <mxPoint x="170" as="targetPoint" />
          </mxGeometry>
        </mxCell>
        <mxCell id="E6-NcNVp-BEpCwzYryR7-52" value="" style="endArrow=none;html=1;rounded=0;fontSize=12;startSize=8;endSize=8;curved=1;" edge="1" parent="E6-NcNVp-BEpCwzYryR7-50">
          <mxGeometry width="50" height="50" relative="1" as="geometry">
            <mxPoint x="10" y="40" as="sourcePoint" />
            <mxPoint x="170" y="40" as="targetPoint" />
          </mxGeometry>
        </mxCell>
        <mxCell id="E6-NcNVp-BEpCwzYryR7-53" value="&lt;font style=&quot;font-size: 20px;&quot;&gt;OrderData&lt;/font&gt;" style="text;html=1;align=center;verticalAlign=middle;resizable=0;points=[];autosize=1;strokeColor=none;fillColor=none;fontSize=16;" vertex="1" parent="E6-NcNVp-BEpCwzYryR7-50">
          <mxGeometry x="30" width="120" height="40" as="geometry" />
        </mxCell>
        <mxCell id="E6-NcNVp-BEpCwzYryR7-54" value="" style="endArrow=classic;html=1;rounded=0;fontSize=12;startSize=8;endSize=8;curved=1;exitX=1;exitY=0.5;exitDx=0;exitDy=0;" edge="1" parent="1" source="E6-NcNVp-BEpCwzYryR7-29">
          <mxGeometry width="50" height="50" relative="1" as="geometry">
            <mxPoint x="380" y="580" as="sourcePoint" />
            <mxPoint x="440" y="500" as="targetPoint" />
          </mxGeometry>
        </mxCell>
        <mxCell id="E6-NcNVp-BEpCwzYryR7-55" value="" style="endArrow=classic;html=1;rounded=0;fontSize=12;startSize=8;endSize=8;curved=1;exitX=0.143;exitY=1.154;exitDx=0;exitDy=0;exitPerimeter=0;entryX=0.75;entryY=0;entryDx=0;entryDy=0;" edge="1" parent="1" source="E6-NcNVp-BEpCwzYryR7-53" target="E6-NcNVp-BEpCwzYryR7-46">
          <mxGeometry width="50" height="50" relative="1" as="geometry">
            <mxPoint x="270" y="660" as="sourcePoint" />
            <mxPoint x="320" y="610" as="targetPoint" />
          </mxGeometry>
        </mxCell>
        <mxCell id="E6-NcNVp-BEpCwzYryR7-56" value="&lt;font style=&quot;font-size: 18px;&quot;&gt;orderStatus&lt;/font&gt;" style="text;html=1;align=center;verticalAlign=middle;resizable=0;points=[];autosize=1;strokeColor=none;fillColor=none;fontSize=16;" vertex="1" parent="1">
          <mxGeometry x="350" y="573" width="120" height="40" as="geometry" />
        </mxCell>
        <mxCell id="E6-NcNVp-BEpCwzYryR7-57" value="&lt;font style=&quot;font-size: 18px;&quot;&gt;orderDetails&lt;/font&gt;" style="text;html=1;align=center;verticalAlign=middle;resizable=0;points=[];autosize=1;strokeColor=none;fillColor=none;fontSize=16;" vertex="1" parent="1">
          <mxGeometry x="320" y="465" width="120" height="40" as="geometry" />
        </mxCell>
      </root>
    </mxGraphModel>
  </diagram>
</mxfile>
